<svg xmlns="http://www.w3.org/2000/svg" viewBox="0 0 379.11 436.87">
  <title>workshopper-logo</title>
  <path d="M15.26,318a2.88,2.88,0,0,0,1.3,2.25l171.69,99.13a2.88,2.88,0,0,0,2.6,0l171.69-99.13a2.88,2.88,0,0,0,1.3-2.25V119.75a2.88,2.88,0,0,0-1.3-2.25L190.85,18.37a2.88,2.88,0,0,0-2.6,0L16.56,117.5a2.88,2.88,0,0,0-1.3,2.25V318Z" transform="translate(0 -0.44)" style="fill: #fff"/>
  <path d="M190.85,437a2.88,2.88,0,0,1-2.6,0L1.3,329.06A2.88,2.88,0,0,1,0,326.81V110.94a2.88,2.88,0,0,1,1.3-2.25l187-107.94a2.88,2.88,0,0,1,2.6,0l187,107.94a2.88,2.88,0,0,1,1.3,2.25V326.81a2.88,2.88,0,0,1-1.3,2.25ZM15.26,318a2.88,2.88,0,0,0,1.3,2.25l171.69,99.13a2.88,2.88,0,0,0,2.6,0l171.69-99.13a2.88,2.88,0,0,0,1.3-2.25V119.75a2.88,2.88,0,0,0-1.3-2.25L190.85,18.37a2.88,2.88,0,0,0-2.6,0L16.56,117.5a2.88,2.88,0,0,0-1.3,2.25V318Z" transform="translate(0 -0.44)" style="fill: #010101"/>
  <path d="M183.44,182.15a3.26,3.26,0,0,1,3.4-2.38h5.55a3.44,3.44,0,0,1,3.28,2.38L212,232.64l7.58-27.06,9.17-30a3.52,3.52,0,0,1,3.4-2.6h9.17c2.38,0,3.74,1.58,3.17,3.4L220.91,251a3.91,3.91,0,0,1-3.17,1.92H206.87a3.66,3.66,0,0,1-3.17-1.81l-14.15-44-13.81,43.47c-0.79,1.25-2.15,2.38-3.4,2.38H161.48a3.74,3.74,0,0,1-3.17-1.92l-23.55-74.6c-0.57-1.81.57-3.4,3.17-3.4H147a4,4,0,0,1,3.28,1.81L159.1,204l8,28.87Z" transform="translate(0 -0.44)" style="fill: #010101"/>
  <g>
    <path d="M110.33,293.55h-4.92a0.57,0.57,0,0,1-.63-0.5V278.87a0.57,0.57,0,0,1,.63-0.5h4.76c2.77,0,5.2,1.15,5.2,4.07a3.52,3.52,0,0,1-1.65,3,3.82,3.82,0,0,1,2.4,3.49C116.13,292.1,113.69,293.55,110.33,293.55Zm0.19-9.16a1.75,1.75,0,0,0,2-1.88c0-1.3-1.39-1.65-2.34-1.65h-2.47v3.53h2.81Zm-2.81,2.4V291h2.62c1.28,0,3-.48,3-2.1,0-2.1-2.08-2.12-3.49-2.12h-2.1Z" transform="translate(0 -0.44)" style="fill: #010101"/>
    <path d="M127.33,287.18v-8.29a0.54,0.54,0,0,1,.61-0.5h1.71a0.54,0.54,0,0,1,.58.5v8.23c0,4.68-2.38,6.65-5.87,6.65-3.1,0-5.63-1.93-5.63-6.58v-8.29a0.57,0.57,0,0,1,.63-0.5H121a0.56,0.56,0,0,1,.63.5v8.29c0,2.08.76,3.94,2.71,3.94C126.55,291.12,127.33,289.63,127.33,287.18Z" transform="translate(0 -0.44)" style="fill: #010101"/>
    <path d="M133.64,278.87a0.56,0.56,0,0,1,.63-0.5h1.62a0.57,0.57,0,0,1,.63.5v14.18a0.57,0.57,0,0,1-.63.5h-1.62a0.56,0.56,0,0,1-.63-0.5V278.87Z" transform="translate(0 -0.44)" style="fill: #010101"/>
    <path d="M149.47,293.05a0.56,0.56,0,0,1-.63.5h-8.29a0.54,0.54,0,0,1-.58-0.5V278.89a0.47,0.47,0,0,1,.5-0.5h1.84a0.46,0.46,0,0,1,.52.5V291h6a0.53,0.53,0,0,1,.63.5v1.54Z" transform="translate(0 -0.44)" style="fill: #010101"/>
    <path d="M155.75,293.55h-4.18a0.57,0.57,0,0,1-.63-0.5V278.89a0.57,0.57,0,0,1,.63-0.5h4.14c4.24,0,7.21,3.05,7.21,7.56C162.92,289.89,160.71,293.38,155.75,293.55ZM153.81,291h1.91c2.75-.07,4.33-2.43,4.33-5s-1.15-5-4.33-5h-1.91v10Z" transform="translate(0 -0.44)" style="fill: #010101"/>
    <path d="M171.23,280.84a0.57,0.57,0,0,1-.63-0.5v-1.45a0.57,0.57,0,0,1,.63-0.5H182a0.52,0.52,0,0,1,.58.5v1.45a0.52,0.52,0,0,1-.58.5h-4v12.21a0.54,0.54,0,0,1-.58.5h-1.6a0.57,0.57,0,0,1-.63-0.5V280.84h-4Z" transform="translate(0 -0.44)" style="fill: #010101"/>
    <path d="M190.73,293.77c-10.44,0-10.44-15.59,0-15.59C200.88,278.18,200.88,293.77,190.73,293.77Zm0-13c-6.78,0-6.78,10.39,0,10.39C197.22,291.17,197.22,280.77,190.73,280.77Z" transform="translate(0 -0.44)" style="fill: #010101"/>
    <path d="M206.7,280.84a0.57,0.57,0,0,1-.63-0.5v-1.45a0.57,0.57,0,0,1,.63-0.5h10.8a0.52,0.52,0,0,1,.58.5v1.45a0.52,0.52,0,0,1-.58.5h-4v12.21a0.54,0.54,0,0,1-.58.5h-1.6a0.57,0.57,0,0,1-.63-0.5V280.84h-4Z" transform="translate(0 -0.44)" style="fill: #010101"/>
    <path d="M229.35,291a0.53,0.53,0,0,1,.63.5v1.56a0.56,0.56,0,0,1-.63.5h-9.25a0.56,0.56,0,0,1-.63-0.5V278.89a0.56,0.56,0,0,1,.63-0.5h9.07a0.57,0.57,0,0,1,.63.5v1.6a0.54,0.54,0,0,1-.63.5h-6.84v3h6.43a0.57,0.57,0,0,1,.63.5V286a0.56,0.56,0,0,1-.63.52h-6.43V291h7Z" transform="translate(0 -0.44)" style="fill: #010101"/>
    <path d="M241.27,289.85h-6L234,293.07a0.93,0.93,0,0,1-.67.48h-1.58c-0.5,0-.76-0.33-0.61-0.69l5.52-14a1,1,0,0,1,.67-0.48h2.12a0.85,0.85,0,0,1,.61.32l5.2,14.16a0.53,0.53,0,0,1-.61.67h-1.62a0.84,0.84,0,0,1-.61-0.33Zm-5-2.53h4.14l-1.95-5.65Z" transform="translate(0 -0.44)" style="fill: #010101"/>
    <path d="M257.18,289.63a0.5,0.5,0,0,1,.78-0.17l1.28,1a0.48,0.48,0,0,1,.13.69,7.16,7.16,0,0,1-5.87,2.62c-4.16-.07-7.27-2.64-7.27-7.95a7.3,7.3,0,0,1,7.51-7.64,6.56,6.56,0,0,1,5.13,2.1,0.5,0.5,0,0,1,0,.69L257.83,282a0.59,0.59,0,0,1-.89,0,4.18,4.18,0,0,0-3.29-1.28c-3.18,0-4.52,2.73-4.52,5.15,0,3.12,1.52,5.28,4.39,5.28A5.38,5.38,0,0,0,257.18,289.63Z" transform="translate(0 -0.44)" style="fill: #010101"/>
    <path d="M264.64,293a0.56,0.56,0,0,1-.63.5h-1.58a0.57,0.57,0,0,1-.63-0.5V278.89a0.57,0.57,0,0,1,.63-0.5H264a0.56,0.56,0,0,1,.63.5v4.24h6.84v-4.24a0.56,0.56,0,0,1,.63-0.5h1.58a0.57,0.57,0,0,1,.63.5V293a0.57,0.57,0,0,1-.63.5h-1.58a0.56,0.56,0,0,1-.63-0.5v-7.43h-6.84V293Z" transform="translate(0 -0.44)" style="fill: #010101"/>
  </g>
  <g>
    <path d="M104.09,305.6a0.57,0.57,0,0,1-.63-0.5v-1.45a0.57,0.57,0,0,1,.63-0.5h10.8a0.52,0.52,0,0,1,.58.5v1.45a0.52,0.52,0,0,1-.58.5h-4v12.21a0.54,0.54,0,0,1-.58.5h-1.6a0.57,0.57,0,0,1-.63-0.5V305.6h-4Z" transform="translate(0 -0.44)" style="fill: #010101"/>
    <path d="M126.75,315.75a0.53,0.53,0,0,1,.63.5v1.56a0.56,0.56,0,0,1-.63.5H117.5a0.56,0.56,0,0,1-.63-0.5V303.65a0.56,0.56,0,0,1,.63-0.5h9.07a0.57,0.57,0,0,1,.63.5v1.6a0.54,0.54,0,0,1-.63.5h-6.84v3h6.43a0.57,0.57,0,0,1,.63.5v1.47a0.56,0.56,0,0,1-.63.52h-6.43v4.5h7Z" transform="translate(0 -0.44)" style="fill: #010101"/>
    <path d="M138.67,314.61h-6l-1.21,3.23a0.92,0.92,0,0,1-.67.48h-1.58c-0.5,0-.76-0.33-0.61-0.69l5.52-14a1,1,0,0,1,.67-0.48h2.12a0.84,0.84,0,0,1,.61.32l5.2,14.16a0.53,0.53,0,0,1-.61.67h-1.62a0.84,0.84,0,0,1-.61-0.33Zm-5-2.53h4.14l-1.95-5.65Z" transform="translate(0 -0.44)" style="fill: #010101"/>
    <path d="M154.57,314.39a0.5,0.5,0,0,1,.78-0.17l1.28,1a0.48,0.48,0,0,1,.13.69,7.16,7.16,0,0,1-5.87,2.62c-4.16-.07-7.28-2.64-7.28-7.95a7.3,7.3,0,0,1,7.51-7.64,6.56,6.56,0,0,1,5.13,2.1,0.5,0.5,0,0,1,0,.69l-1.06,1.06a0.59,0.59,0,0,1-.89,0,4.18,4.18,0,0,0-3.29-1.28c-3.18,0-4.53,2.73-4.53,5.15,0,3.12,1.52,5.28,4.4,5.28A5.38,5.38,0,0,0,154.57,314.39Z" transform="translate(0 -0.44)" style="fill: #010101"/>
    <path d="M162,317.77a0.56,0.56,0,0,1-.63.5h-1.58a0.57,0.57,0,0,1-.63-0.5V303.65a0.57,0.57,0,0,1,.63-0.5h1.58a0.56,0.56,0,0,1,.63.5v4.24h6.84v-4.24a0.56,0.56,0,0,1,.63-0.5h1.58a0.57,0.57,0,0,1,.63.5v14.12a0.57,0.57,0,0,1-.63.5h-1.58a0.56,0.56,0,0,1-.63-0.5v-7.43H162v7.43Z" transform="translate(0 -0.44)" style="fill: #010101"/>
    <path d="M180.46,305.6a0.57,0.57,0,0,1-.63-0.5v-1.45a0.57,0.57,0,0,1,.63-0.5h10.8a0.52,0.52,0,0,1,.58.5v1.45a0.52,0.52,0,0,1-.58.5h-4v12.21a0.54,0.54,0,0,1-.58.5H185a0.57,0.57,0,0,1-.63-0.5V305.6h-4Z" transform="translate(0 -0.44)" style="fill: #010101"/>
    <path d="M200,318.52c-10.44,0-10.44-15.59,0-15.59C210.11,302.93,210.11,318.52,200,318.52Zm0-13c-6.78,0-6.78,10.39,0,10.39C206.45,315.93,206.45,305.53,200,305.53Z" transform="translate(0 -0.44)" style="fill: #010101"/>
    <path d="M222.16,318.31h-4.92a0.57,0.57,0,0,1-.63-0.5V303.63a0.57,0.57,0,0,1,.63-0.5H222c2.77,0,5.2,1.15,5.2,4.07a3.52,3.52,0,0,1-1.65,3,3.82,3.82,0,0,1,2.4,3.49C228,316.86,225.52,318.31,222.16,318.31Zm0.2-9.16a1.75,1.75,0,0,0,2-1.88c0-1.3-1.39-1.65-2.34-1.65h-2.47v3.53h2.81Zm-2.81,2.4v4.22h2.62c1.28,0,3-.48,3-2.1,0-2.1-2.08-2.12-3.49-2.12h-2.1Z" transform="translate(0 -0.44)" style="fill: #010101"/>
    <path d="M239.16,311.94v-8.29a0.54,0.54,0,0,1,.61-0.5h1.71a0.54,0.54,0,0,1,.58.5v8.23c0,4.68-2.38,6.65-5.87,6.65-3.1,0-5.63-1.93-5.63-6.58v-8.29a0.57,0.57,0,0,1,.63-0.5h1.67a0.56,0.56,0,0,1,.63.5v8.29c0,2.08.76,3.94,2.71,3.94C238.38,315.88,239.16,314.39,239.16,311.94Z" transform="translate(0 -0.44)" style="fill: #010101"/>
    <path d="M245.47,303.63a0.56,0.56,0,0,1,.63-0.5h1.62a0.57,0.57,0,0,1,.63.5v14.18a0.57,0.57,0,0,1-.63.5H246.1a0.56,0.56,0,0,1-.63-0.5V303.63Z" transform="translate(0 -0.44)" style="fill: #010101"/>
    <path d="M261.31,317.81a0.56,0.56,0,0,1-.63.5h-8.29a0.54,0.54,0,0,1-.58-0.5V303.65a0.47,0.47,0,0,1,.5-0.5h1.84a0.46,0.46,0,0,1,.52.5v12.13h6a0.53,0.53,0,0,1,.63.5v1.54Z" transform="translate(0 -0.44)" style="fill: #010101"/>
    <path d="M267.59,318.31h-4.18a0.57,0.57,0,0,1-.63-0.5V303.65a0.57,0.57,0,0,1,.63-0.5h4.13c4.24,0,7.21,3.05,7.21,7.56C274.76,314.65,272.55,318.13,267.59,318.31Zm-1.95-2.58h1.91c2.75-.07,4.33-2.43,4.33-5s-1.15-5-4.33-5h-1.91v10Z" transform="translate(0 -0.44)" style="fill: #010101"/>
  </g>
</svg>
